<Objs Version="1.1.0.1" xmlns="http://schemas.microsoft.com/powershell/2004/04">
  <Obj RefId="0">
    <TN RefId="0">
      <T>RoughDraft.Log</T>
      <T>System.Management.Automation.PSCustomObject</T>
      <T>System.Object</T>
    </TN>
    <MS>
      <S N="FFArgs">-i C:\Users\JamesBrundage\Documents\WindowsPowerShell\Modules\RoughDraft\docs\_posts\TestSource-640x480-10s.mp4 -vf geq=lum_expr='p(_x000A_    X + (sin(2*T*PI/E) * ((hypot(X/W,Y/H) - 0.5)) * W/2),_x000A_    Y + (cos(2*T*PI/E) * ((hypot(X/W,Y/H) - 0.5)) * H/2)_x000A_)' -pix_fmt yuv420p  C:\Users\JamesBrundage\Documents\WindowsPowerShell\Modules\RoughDraft\docs\_posts\TestSource-640x480-10s-Wavy.mp4 -y</S>
      <S N="FFOutput">ffmpeg version 2022-09-12-git-3ce6fa6b6d-full_build-www.gyan.dev Copyright (c) 2000-2022 the FFmpeg developers   built with gcc 12.1.0 (Rev2, Built by MSYS2 project)   configuration: --enable-gpl --enable-version3 --enable-static --disable-w32threads --disable-autodetect --enable-fontconfig --enable-iconv --enable-gnutls --enable-libxml2 --enable-gmp --enable-bzlib --enable-lzma --enable-libsnappy --enable-zlib --enable-librist --enable-libsrt --enable-libssh --enable-libzmq --enable-avisynth --enable-libbluray --enable-libcaca --enable-sdl2 --enable-libdav1d --enable-libdavs2 --enable-libuavs3d --enable-libzvbi --enable-librav1e --enable-libsvtav1 --enable-libwebp --enable-libx264 --enable-libx265 --enable-libxavs2 --enable-libxvid --enable-libaom --enable-libjxl --enable-libopenjpeg --enable-libvpx --enable-mediafoundation --enable-libass --enable-frei0r --enable-libfreetype --enable-libfribidi --enable-liblensfun --enable-libvidstab --enable-libvmaf --enable-libzimg --enable-amf --enable-cuda-llvm --enable-cuvid --enable-ffnvcodec --enable-nvdec --enable-nvenc --enable-d3d11va --enable-dxva2 --enable-libmfx --enable-libshaderc --enable-vulkan --enable-libplacebo --enable-opencl --enable-libcdio --enable-libgme --enable-libmodplug --enable-libopenmpt --enable-libopencore-amrwb --enable-libmp3lame --enable-libshine --enable-libtheora --enable-libtwolame --enable-libvo-amrwbenc --enable-libilbc --enable-libgsm --enable-libopencore-amrnb --enable-libopus --enable-libspeex --enable-libvorbis --enable-ladspa --enable-libbs2b --enable-libflite --enable-libmysofa --enable-librubberband --enable-libsoxr --enable-chromaprint   libavutil      57. 36.101 / 57. 36.101   libavcodec     59. 43.100 / 59. 43.100   libavformat    59. 31.100 / 59. 31.100   libavdevice    59.  8.101 / 59.  8.101   libavfilter     8. 48.100 /  8. 48.100   libswscale      6.  8.112 /  6.  8.112   libswresample   4.  9.100 /  4.  9.100   libpostproc    56.  7.100 / 56.  7.100 Input #0, mov,mp4,m4a,3gp,3g2,mj2, from 'C:\Users\JamesBrundage\Documents\WindowsPowerShell\Modules\RoughDraft\docs\_posts\TestSource-640x480-10s.mp4':   Metadata:     major_brand     : isom     minor_version   : 512     compatible_brands: isomiso2avc1mp41     encoder         : Lavf59.31.100   Duration: 00:00:10.00, start: 0.000000, bitrate: 915 kb/s   Stream #0:0[0x1](und): Video: h264 (High) (avc1 / 0x31637661), yuv420p(progressive), 640x480 [SAR 1:1 DAR 4:3], 912 kb/s, 25 fps, 25 tbr, 12800 tbn (default)     Metadata:       handler_name    : VideoHandler       vendor_id       : [0][0][0][0]       encoder         : Lavc59.43.100 libx264 Stream mapping:   Stream #0:0 -&gt; #0:0 (h264 (native) -&gt; h264 (libx264)) Press [q] to stop, [?] for help [libx264 @ 000001ad8bc9b140] using SAR=1/1 [libx264 @ 000001ad8bc9b140] using cpu capabilities: MMX2 SSE2Fast SSSE3 SSE4.2 AVX FMA3 BMI2 AVX2 [libx264 @ 000001ad8bc9b140] profile High, level 3.0, 4:2:0, 8-bit [libx264 @ 000001ad8bc9b140] 264 - core 164 r3098 7628a56 - H.264/MPEG-4 AVC codec - Copyleft 2003-2022 - http://www.videolan.org/x264.html - options: cabac=1 ref=3 deblock=1:0:0 analyse=0x3:0x113 me=hex subme=7 psy=1 psy_rd=1.00:0.00 mixed_ref=1 me_range=16 chroma_me=1 trellis=1 8x8dct=1 cqm=0 deadzone=21,11 fast_pskip=1 chroma_qp_offset=-2 threads=15 lookahead_threads=2 sliced_threads=0 nr=0 decimate=1 interlaced=0 bluray_compat=0 constrained_intra=0 bframes=3 b_pyramid=2 b_adapt=1 b_bias=0 direct=1 weightb=1 open_gop=0 weightp=2 keyint=250 keyint_min=25 scenecut=40 intra_refresh=0 rc_lookahead=40 rc=crf mbtree=1 crf=23.0 qcomp=0.60 qpmin=0 qpmax=69 qpstep=4 ip_ratio=1.40 aq=1:1.00 Output #0, mp4, to 'C:\Users\JamesBrundage\Documents\WindowsPowerShell\Modules\RoughDraft\docs\_posts\TestSource-640x480-10s-Wavy.mp4':   Metadata:     major_brand     : isom     minor_version   : 512     compatible_brands: isomiso2avc1mp41     encoder         : Lavf59.31.100   Stream #0:0(und): Video: h264 (avc1 / 0x31637661), yuv420p(progressive), 640x480 [SAR 1:1 DAR 4:3], q=2-31, 25 fps, 12800 tbn (default)     Metadata:       handler_name    : VideoHandler       vendor_id       : [0][0][0][0]       encoder         : Lavc59.43.100 libx264     Side data:       cpb: bitrate max/min/avg: 0/0/0 buffer size: 0 vbv_delay: N/A frame=    0 fps=0.0 q=0.0 size=       0kB time=-577014:32:22.77 bitrate=  -0.0kbits/s speed=N/A     frame=    0 fps=0.0 q=0.0 size=       0kB time=-577014:32:22.77 bitrate=  -0.0kbits/s speed=N/A     frame=    2 fps=1.9 q=28.0 size=       0kB time=00:00:00.00 bitrate=N/A speed=   0x     frame=   32 fps= 21 q=28.0 size=       0kB time=00:00:01.20 bitrate=   0.3kbits/s speed=0.786x     frame=   62 fps= 31 q=28.0 size=       0kB time=00:00:02.40 bitrate=   0.2kbits/s speed=1.18x     frame=   93 fps= 37 q=28.0 size=     256kB time=00:00:03.64 bitrate= 576.2kbits/s speed=1.43x     frame=  123 fps= 40 q=28.0 size=     256kB time=00:00:04.84 bitrate= 433.4kbits/s speed=1.59x     frame=  154 fps= 43 q=28.0 size=     512kB time=00:00:06.08 bitrate= 689.9kbits/s speed=1.71x     frame=  184 fps= 45 q=28.0 size=     768kB time=00:00:07.28 bitrate= 864.3kbits/s speed=1.79x     frame=  250 fps= 59 q=-1.0 Lsize=    1039kB time=00:00:09.88 bitrate= 861.4kbits/s speed=2.34x     video:1036kB audio:0kB subtitle:0kB other streams:0kB global headers:0kB muxing overhead: 0.331205% [libx264 @ 000001ad8bc9b140] frame I:2     Avg QP:17.95  size:  6592 [libx264 @ 000001ad8bc9b140] frame P:123   Avg QP:27.15  size:  5191 [libx264 @ 000001ad8bc9b140] frame B:125   Avg QP:29.57  size:  3264 [libx264 @ 000001ad8bc9b140] consecutive B-frames: 20.8% 30.4% 21.6% 27.2% [libx264 @ 000001ad8bc9b140] mb I  I16..4: 48.0% 40.0% 12.0% [libx264 @ 000001ad8bc9b140] mb P  I16..4:  1.6%  9.4%  1.7%  P16..4: 13.4%  9.9%  5.0%  0.0%  0.0%    skip:59.0% [libx264 @ 000001ad8bc9b140] mb B  I16..4:  0.3%  0.6%  0.1%  B16..8: 26.7%  9.0%  1.0%  direct: 1.4%  skip:60.8%  L0:49.1% L1:42.5% BI: 8.4% [libx264 @ 000001ad8bc9b140] 8x8 transform intra:69.1% inter:35.6% [libx264 @ 000001ad8bc9b140] coded y,uvDC,uvAC intra: 11.9% 31.8% 28.5% inter: 4.1% 17.2% 15.3% [libx264 @ 000001ad8bc9b140] i16 v,h,dc,p: 70% 21%  8%  1% [libx264 @ 000001ad8bc9b140] i8 v,h,dc,ddl,ddr,vr,hd,vl,hu: 12%  7% 77%  0%  0%  1%  0%  0%  1% [libx264 @ 000001ad8bc9b140] i4 v,h,dc,ddl,ddr,vr,hd,vl,hu: 27% 16% 42%  1%  2%  3%  3%  2%  3% [libx264 @ 000001ad8bc9b140] i8c dc,h,v,p: 61% 16% 22%  1% [libx264 @ 000001ad8bc9b140] Weighted P-Frames: Y:0.0% UV:0.0% [libx264 @ 000001ad8bc9b140] ref P L0: 70.9%  6.5% 16.0%  6.5% [libx264 @ 000001ad8bc9b140] ref B L0: 88.0% 10.8%  1.2% [libx264 @ 000001ad8bc9b140] ref B L1: 98.4%  1.6% [libx264 @ 000001ad8bc9b140] kb/s:847.74</S>
      <DT N="InputLastWriteTime">2022-10-05T15:49:07.0075606-07:00</DT>
      <S N="OutputPath">C:\Users\JamesBrundage\Documents\WindowsPowerShell\Modules\RoughDraft\docs\_posts\TestSource-640x480-10s-Wavy.mp4</S>
    </MS>
  </Obj>
</Objs>